<svg width="26" height="22" viewBox="0 0 26 22" fill="none" xmlns="http://www.w3.org/2000/svg">
<path d="M3.69233 2.12586C1.36775 3.45849 -0.00996548 4.2751 5.42794e-05 4.32018C0.0150839 4.39533 2.06913 10.0866 2.09418 10.1166C2.1042 10.1266 4.85463 9.22987 5.26043 9.07957C5.30551 9.06454 5.32054 10.307 5.32054 15.2016V21.3438H12.7853H20.25V15.2016C20.25 10.307 20.265 9.06454 20.3151 9.07957C20.7159 9.22987 23.4663 10.1266 23.4763 10.1166C23.4864 10.1066 23.9673 8.789 24.5485 7.19084C25.4402 4.73099 25.5955 4.2751 25.5304 4.23001C25.4903 4.19995 23.817 3.23304 21.8081 2.08578L18.1558 0.00166989H16.7982H15.4405V0.187035C15.4405 0.442539 15.3253 0.858359 15.1599 1.19903C14.9746 1.57978 14.4035 2.1459 14.0027 2.3513C12.9255 2.89237 11.7632 2.69698 10.9015 1.83529C10.4256 1.35935 10.13 0.728102 10.13 0.187035V0.00166989H8.76734L7.39964 0.00667976L3.69233 2.12586ZM9.3034 1.31426C9.53385 1.96554 10.135 2.71201 10.7312 3.09777C12.0187 3.91939 13.5518 3.91939 14.8393 3.09777C15.4355 2.71201 16.0367 1.96554 16.2671 1.31426L16.3623 1.05374H17.1038H17.8452L21.0516 2.88736C22.815 3.89435 24.2579 4.74602 24.2579 4.77608C24.2629 4.90634 22.8301 8.76896 22.78 8.76896C22.7499 8.76896 21.9533 8.50844 21.0015 8.19282C20.0496 7.8772 19.258 7.61668 19.238 7.61668C19.2129 7.61668 19.1979 10.4673 19.1979 13.9542V20.2917H12.7853H6.37262V13.9542C6.37262 10.4673 6.35759 7.61668 6.33254 7.61668C6.3125 7.61668 5.52094 7.8772 4.56906 8.19282C3.61719 8.50844 2.82062 8.76896 2.79056 8.76896C2.73044 8.76896 1.2926 4.84622 1.32266 4.76105C1.33268 4.73099 2.77052 3.88433 4.51896 2.88235L7.70024 1.05875H8.45673L9.20821 1.05374L9.3034 1.31426Z" fill="black"/>
</svg>
