<svg width="25" height="25" viewBox="0 0 25 25" fill="none" xmlns="http://www.w3.org/2000/svg">
<path d="M1 1H3.04728C4.318 1 5.31811 2.0695 5.21222 3.3L4.23564 14.754C4.19751 15.1977 4.2541 15.6444 4.40182 16.0656C4.54954 16.4869 4.78517 16.8735 5.09378 17.2011C5.40239 17.5287 5.77725 17.7901 6.19462 17.9686C6.61198 18.1472 7.06274 18.2391 7.51834 18.2385H20.0491C21.7434 18.2385 23.2259 16.8815 23.3553 15.237L23.9907 6.612C24.1319 4.703 22.6494 3.1505 20.6845 3.1505H5.4946M9.23618 7.9H23.3553M17.7665 24C18.1566 24 18.5307 23.8486 18.8065 23.579C19.0823 23.3094 19.2372 22.9437 19.2372 22.5625C19.2372 22.1813 19.0823 21.8156 18.8065 21.546C18.5307 21.2764 18.1566 21.125 17.7665 21.125C17.3764 21.125 17.0023 21.2764 16.7265 21.546C16.4507 21.8156 16.2958 22.1813 16.2958 22.5625C16.2958 22.9437 16.4507 23.3094 16.7265 23.579C17.0023 23.8486 17.3764 24 17.7665 24ZM8.35373 24C8.74379 24 9.11788 23.8486 9.3937 23.579C9.66952 23.3094 9.82447 22.9437 9.82447 22.5625C9.82447 22.1813 9.66952 21.8156 9.3937 21.546C9.11788 21.2764 8.74379 21.125 8.35373 21.125C7.96366 21.125 7.58957 21.2764 7.31375 21.546C7.03794 21.8156 6.88298 22.1813 6.88298 22.5625C6.88298 22.9437 7.03794 23.3094 7.31375 23.579C7.58957 23.8486 7.96366 24 8.35373 24Z" stroke="black" stroke-width="1.5" stroke-miterlimit="10" stroke-linecap="round" stroke-linejoin="round"/>
</svg>
