<svg width="20" height="20" viewBox="0 0 20 20" fill="none" xmlns="http://www.w3.org/2000/svg">
<path d="M3.37527 0.0401192C1.94504 0.262806 0.696234 1.21607 0.236369 2.44281C-0.012549 3.09915 0.000107845 2.71238 0.000107845 9.99857C0.000107845 15.9486 0.00854574 16.7144 0.067611 16.9839C0.261683 17.8552 0.717329 18.5701 1.43455 19.1288C1.76785 19.3905 2.41335 19.7187 2.78461 19.8242C3.39636 19.9922 3.55246 20 6.72933 20C9.53915 20 9.77963 19.9961 9.91042 19.9297C10.3197 19.7382 10.3576 19.2225 9.98636 18.9686C9.86823 18.8866 9.8176 18.8866 6.71667 18.867C3.21495 18.8397 3.36683 18.8514 2.75508 18.5701C2.08427 18.2576 1.57799 17.7028 1.33751 17.0113L1.2447 16.7378V9.99857V3.25933L1.33751 2.98585C1.57799 2.29825 2.10114 1.72005 2.76352 1.42313C3.37527 1.14574 3.21916 1.15746 6.75042 1.13012C9.729 1.11058 9.94839 1.10668 10.0539 1.04026C10.4504 0.801947 10.4167 0.2589 9.99901 0.0674667C9.86401 0.00105095 9.62353 -0.00285721 6.72933 0.00105095C5.01222 0.0049572 3.50183 0.0205841 3.37527 0.0401192Z" fill="black"/>
<path d="M15.1877 5.85197C14.8418 6.01215 14.7405 6.41455 14.9726 6.70366C15.0401 6.7857 15.7151 7.42642 16.4703 8.12574L17.8457 9.39545L11.5088 9.41498C5.36181 9.43452 5.16352 9.43842 5.03273 9.50875C4.61928 9.74316 4.63615 10.294 5.06227 10.4972L5.2479 10.587H11.5805H17.909L16.3944 11.9896L14.8798 13.3921L14.8629 13.6031C14.8502 13.7633 14.8671 13.8375 14.9304 13.9391C15.0991 14.1813 15.3945 14.279 15.6814 14.1813C15.8164 14.1344 19.8412 10.4308 19.9383 10.2667C20.0395 10.087 20.0142 9.83692 19.875 9.66502C19.8075 9.58298 18.8709 8.70004 17.7993 7.70771C15.5928 5.67226 15.5843 5.66445 15.1877 5.85197Z" fill="black"/>
</svg>
