<svg width="23" height="23" viewBox="0 0 23 23" fill="none" xmlns="http://www.w3.org/2000/svg">
<g clip-path="url(#clip0_4757_11064)">
<path d="M11.1717 0.0673828C9.74315 0.341406 8.57967 1.21738 7.9283 2.50664L7.77557 2.8166L4.05604 3.97559C2.01209 4.61348 0.2826 5.16602 0.215217 5.20195C0.0175604 5.31426 -0.0543146 5.56133 0.0490057 5.76348C0.0759589 5.81738 0.713849 6.48223 1.46854 7.23691L2.83865 8.61152L1.95819 10.085C1.29783 11.19 1.07772 11.5943 1.07772 11.7021C1.07772 11.9986 1.15408 12.0436 2.56014 12.5107L3.86287 12.9465V16.4504C3.86287 19.6668 3.86737 19.9633 3.93924 20.0846C3.97967 20.152 4.04705 20.2238 4.08299 20.2418C4.57264 20.4439 11.4412 23 11.4951 23C11.5355 23 13.4222 22.3801 15.6863 21.6254C19.4103 20.3855 19.8191 20.2418 19.9224 20.116L20.0347 19.9813V16.374V12.7623L20.7445 12.5377C21.1308 12.4164 21.7418 12.2232 22.1056 12.1109C22.465 11.9986 22.8019 11.8639 22.8558 11.8145C22.9726 11.7021 23.0176 11.5404 22.9771 11.3742C22.9592 11.2979 22.4785 10.7812 21.5935 9.8918L20.2369 8.53516L21.5711 7.19648C22.3033 6.46426 22.9232 5.81738 22.9502 5.76348C23.0715 5.5209 22.9547 5.25137 22.6762 5.14805C22.5683 5.10762 21.1982 4.68086 19.6305 4.2002C15.839 3.03223 16.2299 3.17148 16.167 2.97383C16.0906 2.72227 15.8346 2.22812 15.6369 1.93613C15.0349 1.05117 14.0781 0.395313 13.0045 0.130274C12.5193 0.00898552 11.6344 -0.0179691 11.1717 0.0673828ZM12.8472 1.01074C14.0826 1.32969 15.1158 2.36738 15.4347 3.61621C15.5471 4.05645 15.5471 4.94141 15.4347 5.36816C14.9496 7.20098 13.1617 8.35098 11.3199 8.02305C10.0666 7.79844 8.95701 6.84609 8.55721 5.64219C7.84744 3.52188 9.16366 1.35215 11.4008 0.943359C11.7062 0.884962 12.5058 0.92539 12.8472 1.01074ZM7.4701 4.21816C7.42069 4.84707 7.60487 5.82637 7.86541 6.34297C7.91483 6.43731 7.95076 6.51816 7.95076 6.53164C7.95076 6.54062 6.95799 6.88203 5.74959 7.28633L3.54842 8.01855L2.42537 6.89551L1.30233 5.77246L4.34803 4.82012C6.01912 4.29902 7.4117 3.86777 7.44315 3.86777C7.48358 3.86328 7.49256 3.95312 7.4701 4.21816ZM19.1678 4.99531L21.6969 5.77246L20.5738 6.89551L19.4508 8.01855L17.6449 7.4166C16.6476 7.08867 15.8301 6.81016 15.8211 6.80566C15.8121 6.79668 15.8705 6.66191 15.9514 6.50918C16.2433 5.92969 16.3826 5.38164 16.4275 4.64043C16.4545 4.19121 16.459 4.17324 16.5488 4.1957C16.6027 4.20918 17.7797 4.56856 19.1678 4.99531ZM8.78182 7.65469C10.1295 9.00684 12.151 9.35723 13.858 8.53965C14.2892 8.33301 14.9137 7.90625 15.1293 7.67266L15.2326 7.55586L16.6701 8.03203C17.4562 8.29707 18.1031 8.52168 18.1031 8.53516C18.1031 8.54863 16.6162 9.05176 14.8014 9.6582L11.4996 10.7588L8.19783 9.6582C6.38299 9.05176 4.89608 8.54863 4.89608 8.53516C4.89608 8.51719 8.00018 7.45703 8.43592 7.32676C8.44041 7.32227 8.59764 7.47051 8.78182 7.65469ZM7.28592 10.2961L10.8258 11.4775L10.125 12.6455C9.73866 13.2879 9.41971 13.8225 9.41073 13.8314C9.40174 13.8359 7.77557 13.3059 5.79901 12.6455L2.20076 11.4461L2.25916 11.3473C2.28612 11.2889 2.60506 10.7543 2.96444 10.1568C3.43612 9.3707 3.63377 9.07871 3.68319 9.09668C3.71912 9.11016 5.3408 9.64922 7.28592 10.2961ZM20.5828 10.1838L21.6969 11.2979L17.9099 12.4838C15.8301 13.1352 14.1096 13.6787 14.0826 13.6832C14.0377 13.6967 12.2812 11.518 12.2947 11.4641C12.3037 11.4326 19.3025 9.0832 19.4058 9.07871C19.4418 9.07422 19.9719 9.57285 20.5828 10.1838ZM12.8248 13.5979C13.7097 14.7164 13.7277 14.7254 14.1275 14.6131C14.2533 14.5771 15.4078 14.2133 16.6971 13.809C17.9863 13.4047 19.0644 13.0723 19.0914 13.0723C19.1228 13.0723 19.1363 14.1234 19.1363 16.3021V19.532L15.601 20.7135C13.6514 21.3604 12.0342 21.8994 12.0072 21.9129C11.9623 21.9264 11.9488 20.9695 11.9488 17.223C11.9488 14.5906 11.9668 12.5332 11.9892 12.5557C12.0072 12.5826 12.3846 13.0498 12.8248 13.5979ZM11.0324 21.8635C11.0234 21.877 9.61287 21.3604 7.89686 20.718L4.78377 19.5545L4.7703 16.401C4.7658 14.6715 4.7658 13.252 4.77479 13.252C4.77928 13.252 5.84393 13.6068 7.14217 14.0381C8.44041 14.4693 9.54549 14.8242 9.5994 14.8242C9.84198 14.8242 9.92733 14.7254 10.4799 13.8045L11.0279 12.8926L11.0414 17.3713C11.0459 19.833 11.0414 21.8545 11.0324 21.8635Z" fill="black"/>
<path d="M13.97 2.76625C13.9071 2.80668 13.3276 3.36821 12.6807 4.01059L11.5038 5.18305L11.1983 4.89106C11.0321 4.72934 10.8434 4.57211 10.785 4.54067C10.6323 4.45532 10.3987 4.51821 10.2684 4.67543C10.0349 4.94946 10.1292 5.14711 10.839 5.82543C11.2747 6.2477 11.405 6.31957 11.6206 6.26567C11.7509 6.23422 14.2665 3.777 14.5136 3.44008C14.6888 3.202 14.6843 3.04028 14.4911 2.84711C14.3204 2.67641 14.1497 2.64946 13.97 2.76625Z" fill="black"/>
</g>
<defs>
<clipPath id="clip0_4757_11064">
<rect width="23" height="23" fill="white"/>
</clipPath>
</defs>
</svg>
