<svg width="65" height="65" viewBox="0 0 65 65" fill="none" xmlns="http://www.w3.org/2000/svg">
<rect width="65" height="65" rx="10" fill="white"/>
<rect x="0.25" y="0.25" width="64.5" height="64.5" rx="9.75" stroke="black" stroke-opacity="0.1" stroke-width="0.5"/>
<path d="M49.9761 29.4107H48.4994V29.3346H31.9993V36.668H42.3604C40.8489 40.9369 36.7871 44.0013 31.9993 44.0013C25.9246 44.0013 20.9993 39.0761 20.9993 33.0013C20.9993 26.9266 25.9246 22.0013 31.9993 22.0013C34.8034 22.0013 37.3545 23.0591 39.2969 24.7871L44.4825 19.6015C41.2082 16.5499 36.8284 14.668 31.9993 14.668C21.8748 14.668 13.666 22.8767 13.666 33.0013C13.666 43.1259 21.8748 51.3346 31.9993 51.3346C42.1239 51.3346 50.3327 43.1259 50.3327 33.0013C50.3327 31.7721 50.2062 30.5721 49.9761 29.4107Z" fill="#FFC107"/>
<path d="M15.7812 24.4681L21.8047 28.8855C23.4345 24.8503 27.3817 22.0013 32.0008 22.0013C34.8048 22.0013 37.3559 23.0591 39.2983 24.7871L44.4839 19.6015C41.2096 16.5499 36.8298 14.668 32.0008 14.668C24.9589 14.668 18.8521 18.6436 15.7812 24.4681Z" fill="#FF3D00"/>
<path d="M32.0009 51.332C36.7364 51.332 41.0393 49.5198 44.2925 46.5727L38.6184 41.7712C36.7777 43.1654 34.4897 43.9987 32.0009 43.9987C27.2324 43.9987 23.1835 40.9581 21.6582 36.7148L15.6797 41.3211C18.7139 47.2583 24.8757 51.332 32.0009 51.332Z" fill="#4CAF50"/>
<path d="M49.9768 29.4081H48.5V29.332H32V36.6654H42.3611C41.6351 38.7159 40.316 40.4842 38.6147 41.7721C38.6156 41.7712 38.6165 41.7712 38.6174 41.7703L44.2916 46.5718C43.8901 46.9366 50.3333 42.1654 50.3333 32.9987C50.3333 31.7694 50.2068 30.5695 49.9768 29.4081Z" fill="#1976D2"/>
</svg>
