<svg width="65" height="65" viewBox="0 0 65 65" fill="none" xmlns="http://www.w3.org/2000/svg">
<rect width="65" height="65" rx="10" fill="#0068FF"/>
<path fill-rule="evenodd" clip-rule="evenodd" d="M50.1062 22.5405C50.376 21.6532 50.1062 21 48.8144 21H44.5487C43.4632 21 42.9627 21.5639 42.6914 22.1862C42.6914 22.1862 40.522 27.3797 37.4491 30.7533C36.4546 31.7315 36.0029 32.0419 35.4601 32.0419C35.1887 32.0419 34.7809 31.7315 34.7809 30.8426V22.5405C34.7809 21.4745 34.4819 21 33.5784 21H26.8704C26.1927 21 25.7849 21.494 25.7849 21.9636C25.7849 22.9727 27.3221 23.2067 27.4797 26.0472V32.219C27.4797 33.5726 27.2311 33.818 26.6884 33.818C25.2421 33.818 21.724 28.6001 19.6359 22.6299C19.2312 21.468 18.8217 21 17.7314 21H13.4625C12.2437 21 12 21.5639 12 22.1862C12 23.2945 13.4462 28.8 18.7356 36.0816C22.2619 41.0541 27.2262 43.75 31.7486 43.75C34.4607 43.75 34.7955 43.152 34.7955 42.1201V38.3615C34.7955 37.1639 35.0522 36.925 35.9119 36.925C36.5456 36.925 37.6295 37.237 40.1612 39.6339C43.0537 42.476 43.5299 43.75 45.1581 43.75H49.4237C50.6425 43.75 51.2535 43.152 50.9025 41.969C50.5157 40.7925 49.1345 39.0846 47.3031 37.0583C46.3086 35.9045 44.8169 34.6614 44.3635 34.039C43.7314 33.2411 43.9117 32.8853 44.3635 32.1751C44.3635 32.1751 49.5635 24.9829 50.1046 22.5405H50.1062Z" fill="white"/>
</svg>
